<svg width="210" height="210" viewBox="0 0 210 210" fill="none" xmlns="http://www.w3.org/2000/svg">
<path d="M105 206C49.2192 206 4 160.781 4 105C4 49.2192 49.2192 4 105 4C160.781 4 206 49.2192 206 105C206 160.781 160.781 206 105 206Z" stroke="white" stroke-width="8"/>
<path d="M92.2849 156.276L136.331 112.331C140.502 108.161 140.502 101.345 136.331 97.1746L92.2849 53.128C88.1142 48.9573 81.2987 48.9573 77.128 53.128C72.9573 57.2987 72.9573 64.1142 77.128 68.2849L105.916 97.1746C110.087 101.345 110.087 108.161 105.916 112.331L77.128 141.119C72.9573 145.29 72.9573 152.106 77.128 156.276C81.2987 160.447 88.1142 160.447 92.2849 156.276Z" fill="white"/>
</svg>
