<svg width="336" height="602" viewBox="0 0 336 602" fill="none" xmlns="http://www.w3.org/2000/svg">
<path d="M1.59766 32.9909V22.3783L28 2L59.7699 9.40535H282.079L315.5 2L335 22.3783V542.457L324.079 601H304H226H174.612H63.5408H42.0001H20.0001L6.5 542.457L1.59766 32.9909Z" stroke="#3498DB" stroke-width="2"/>
<path d="M51.8693 7.8208C51.6412 7.8208 51.4186 8.07396 51.23 8.54832L45.498 22.9631C45.1867 23.7461 45 25.0488 45 26.441V40.1354V40.3979L51.221 40.4022C51.3293 40.5442 60.1036 40.7948 60.1967 41.0455L65.5434 56.3277H279.619L286.939 35.398H302V26.441C302 25.0488 301.814 23.7462 301.502 22.9632L295.77 8.54978C295.582 8.07543 295.359 7.82225 295.131 7.82225L51.8693 7.8208Z" fill="#0B1520" fill-opacity="0.47451" stroke="#3498DB" stroke-width="2"/>
</svg>
