<svg width="410" height="602" viewBox="0 0 410 602" fill="none" xmlns="http://www.w3.org/2000/svg">
<path d="M1 32.9909V22.3783L33.3098 2L72.188 9.40535H344.238L385.137 2L409 22.3783V579L395.635 601H371.064H275.612H212.725H76.8027H50.4423H23.5199L1 579V32.9909Z" stroke="#3498DB" stroke-width="2"/>
<path d="M62.5195 7.8208C62.2404 7.8208 61.968 8.07396 61.7372 8.54832L54.7228 22.9631C54.3418 23.7461 54.1133 25.0488 54.1133 26.441V40.1354V40.3979L61.7262 40.4022C61.8588 40.5442 72.5963 40.7948 72.7102 41.0455L79.2532 56.3277H341.228L350.186 35.398H368.616V26.441C368.616 25.0488 368.388 23.7462 368.007 22.9632L360.993 8.54978C360.762 8.07543 360.489 7.82225 360.21 7.82225L62.5195 7.8208Z" fill="#0B1520" fill-opacity="0.47451" stroke="#3498DB" stroke-width="2"/>
</svg>
