<svg width="1309" height="517" viewBox="0 0 1309 517" fill="none" xmlns="http://www.w3.org/2000/svg">
<path d="M3.33831 42.7354L47.5 1H121.5H191L230.976 24.2687H1100.91L1130.66 1H1197H1265.26L1308 34.426V441.632L1265.26 487.468L1221 516H829.043H682.5H254H209.25H65.8451L1 487.468L3.33831 42.7354Z" stroke="#3498DB" stroke-width="2"/>
<path d="M178.885 24C177.992 24 177.121 24.2763 176.383 24.7941L153.949 40.5282C152.731 41.3828 152 42.8047 152 44.3243V59.272V59.5585L176.348 59.5632C176.772 59.7183 177.138 59.9917 177.502 60.2655H211.477L232.402 76.9462H1070.25L1098.9 54.1011H1157.84V44.3243C1157.84 42.8047 1157.11 41.3829 1155.89 40.5282L1133.46 24.7957C1132.72 24.2779 1131.85 24.0016 1130.96 24.0016L178.885 24Z" fill="#0B1520" fill-opacity="0.47451" stroke="#3498DB" stroke-width="2"/>
</svg>
