<svg width="1309" height="517" viewBox="0 0 1309 517" fill="none" xmlns="http://www.w3.org/2000/svg">
<path d="M156 60.2655V44.3243C156 42.8047 156.731 41.3828 157.949 40.5282L180.383 24.7941C181.121 24.2763 181.992 24 182.885 24L1134.96 24.0016C1135.85 24.0016 1161.84 44.3243 1161.84 44.3243V60H1098L1074.25 76.9462H236.402L215.477 60.2655H156ZM156 60.2655V59.5585" stroke="#3498DB" stroke-width="2"/>
<path d="M1100.91 24.2687L1130.66 1H1197H1265.26L1308 34.426V441.632L1265.26 487.468L1221 516H829.043H682.5H254H209.25H65.8451L1 487.468L3.33831 42.7354L47.5 1H121.5H191L230.976 24.2687" stroke="#3498DB" stroke-width="2"/>
</svg>
